<?xml version="1.0" standalone="no"?>
<!DOCTYPE svg PUBLIC "-//W3C//DTD SVG 20010904//EN"
 "http://www.w3.org/TR/2001/REC-SVG-20010904/DTD/svg10.dtd">
<svg version="1.0" xmlns="http://www.w3.org/2000/svg"
 width="1300.000000pt" height="1300.000000pt" viewBox="0 0 1300.000000 1300.000000"
 preserveAspectRatio="xMidYMid meet">
<metadata>
Created by potrace 1.14, written by Peter Selinger 2001-2017
</metadata>
<g transform="translate(0.000000,1300.000000) scale(0.100000,-0.100000)"
fill="#000000" stroke="none">
<path d="M0 6500 l0 -6500 6500 0 6500 0 0 6500 0 6500 -6500 0 -6500 0 0
-6500z m6998 3290 c496 -45 962 -223 1303 -498 172 -138 349 -352 448 -542
303 -578 306 -1315 8 -1821 -346 -589 -1004 -969 -1902 -1098 -205 -29 -411
-41 -731 -41 l-284 0 0 -552 c0 -304 5 -605 10 -668 12 -135 37 -226 91 -330
83 -160 201 -265 368 -327 l72 -26 -48 -50 c-65 -66 -173 -142 -242 -168 -79
-30 -224 -37 -323 -15 -130 29 -253 99 -381 216 l-67 62 -58 -53 c-128 -117
-258 -194 -382 -225 -88 -22 -243 -15 -321 15 -69 26 -177 102 -243 169 l-48
50 48 16 c84 28 196 97 249 152 71 75 153 211 185 307 18 52 32 125 40 197 8
84 10 678 8 2205 -4 2316 1 2146 -68 2294 -94 200 -217 325 -399 402 l-63 27
63 62 c78 75 161 132 237 160 46 18 80 22 172 23 100 1 125 -3 189 -26 103
-36 219 -109 312 -195 l79 -74 88 51 c241 138 638 253 1047 304 64 8 445 6
543 -3z m1440 -361 c358 -218 620 -537 791 -966 208 -523 202 -1164 -15 -1623
-312 -659 -998 -1127 -1919 -1309 -251 -49 -440 -68 -793 -77 l-262 -7 0 -436
c0 -450 9 -643 34 -722 19 -61 59 -139 91 -178 31 -36 19 -39 -43 -11 -97 44
-230 208 -274 339 -22 64 -23 79 -26 612 l-3 546 268 6 c309 8 437 18 653 53
690 113 1254 372 1640 754 324 320 511 695 560 1115 15 136 12 435 -6 574 -70
541 -325 1012 -717 1324 -33 26 -56 47 -53 47 4 0 37 -18 74 -41z m-4143 -138
c38 -17 170 -119 163 -126 -2 -2 -73 10 -158 26 -85 16 -157 29 -160 29 -2 0
16 20 40 45 49 50 58 52 115 26z m2493 -5402 c64 -11 125 -22 135 -25 14 -4 3
-22 -60 -97 -226 -265 -340 -355 -523 -416 -236 -77 -507 -21 -751 155 -26 19
-49 34 -53 34 -3 0 -34 -20 -68 -45 -222 -164 -487 -218 -720 -145 -73 23
-205 96 -263 145 l-40 34 66 -24 c230 -83 489 -34 742 139 l67 46 68 -47 c192
-132 416 -197 595 -173 214 30 414 155 597 374 30 36 63 66 73 66 10 0 71 -9
135 -21z"/>
<path d="M6525 9449 c-95 -13 -247 -67 -330 -116 -176 -105 -282 -249 -332
-449 -15 -63 -17 -186 -20 -1406 l-4 -1338 256 0 c487 0 801 57 1080 197 176
89 392 283 504 453 192 292 261 564 261 1028 0 622 -129 1034 -411 1314 -109
108 -237 190 -389 248 -160 62 -440 94 -615 69z m466 -212 c112 -29 220 -80
307 -145 34 -25 61 -47 59 -48 -1 -1 -48 13 -103 31 -195 65 -456 70 -627 10
-192 -67 -310 -189 -363 -380 -16 -54 -18 -174 -24 -1225 -4 -641 -8 -1166 -9
-1167 0 -2 -48 -3 -106 -3 l-105 0 0 1223 c0 1024 3 1233 15 1290 34 164 142
300 296 376 124 61 182 71 389 67 148 -3 190 -7 271 -29z"/>
<path d="M5027 9163 c-13 -12 -7 -41 9 -47 9 -3 141 -6 294 -6 291 0 310 3
294 44 -5 14 -38 16 -298 16 -161 0 -296 -3 -299 -7z"/>
<path d="M7727 9163 c-15 -14 -6 -41 16 -47 34 -9 530 -7 545 3 8 5 12 17 10
27 -3 18 -18 19 -284 22 -154 1 -283 -1 -287 -5z"/>
<path d="M5024 8835 c-4 -8 -4 -22 0 -30 5 -13 47 -15 294 -15 245 0 291 2
302 15 10 12 10 18 0 30 -11 13 -57 15 -302 15 -247 0 -289 -2 -294 -15z"/>
<path d="M7981 8836 c-6 -7 -9 -21 -5 -30 6 -15 33 -16 268 -14 l261 3 0 25 0
25 -256 3 c-209 2 -258 0 -268 -12z"/>
<path d="M5021 8526 c-7 -8 -11 -23 -9 -33 3 -17 24 -18 311 -21 l308 -2 -3
32 -3 33 -296 3 c-250 2 -298 0 -308 -12z"/>
<path d="M8051 8526 c-7 -8 -10 -24 -6 -36 6 -20 13 -20 311 -20 273 0 305 2
311 16 3 9 2 24 -4 33 -9 14 -46 16 -305 19 -250 2 -297 0 -307 -12z"/>
<path d="M5026 8217 c-10 -7 -16 -22 -14 -33 3 -18 15 -19 308 -19 l305 0 3
24 c2 13 -2 28 -10 32 -7 5 -139 9 -294 9 -216 0 -284 -3 -298 -13z"/>
<path d="M8152 8221 c-8 -4 -12 -19 -10 -32 l3 -24 305 0 c293 0 305 1 308 19
9 42 -16 46 -312 46 -155 0 -287 -4 -294 -9z"/>
<path d="M5007 7813 c-12 -12 -7 -51 9 -67 13 -14 55 -16 308 -16 321 0 330 2
324 55 l-3 30 -316 3 c-173 1 -318 -1 -322 -5z"/>
<path d="M8177 7813 c-12 -12 -7 -51 9 -67 13 -14 55 -16 308 -16 320 0 321 0
314 57 l-3 28 -311 3 c-171 1 -313 -1 -317 -5z"/>
<path d="M5006 7404 c-10 -25 -7 -42 10 -58 13 -14 55 -16 308 -16 321 0 330
2 324 55 l-3 30 -316 3 c-282 2 -317 1 -323 -14z"/>
<path d="M8090 7399 c-9 -16 -8 -26 5 -45 l15 -24 300 0 c294 0 300 0 310 21
7 11 9 32 6 45 l-6 24 -310 0 c-302 0 -310 0 -320 -21z"/>
<path d="M5016 7004 c-18 -17 -21 -51 -6 -74 8 -13 55 -15 302 -18 319 -2 340
1 346 49 7 58 -1 59 -328 59 -258 0 -301 -2 -314 -16z"/>
<path d="M8006 7004 c-18 -17 -21 -51 -6 -74 8 -12 46 -16 217 -18 114 -2 223
0 241 3 44 8 62 44 38 80 l-16 25 -230 0 c-194 0 -231 -2 -244 -16z"/>
<path d="M5012 6588 c-16 -16 -15 -63 2 -77 9 -8 102 -11 321 -9 277 3 309 5
319 20 7 11 7 26 0 45 l-9 28 -311 3 c-232 2 -313 -1 -322 -10z"/>
<path d="M7710 6581 c-13 -26 -13 -54 2 -69 9 -9 78 -12 249 -12 131 0 244 3
253 6 19 7 22 64 4 82 -9 9 -79 12 -255 12 -229 0 -243 -1 -253 -19z"/>
<path d="M5016 6174 c-19 -18 -21 -45 -4 -62 9 -9 92 -12 313 -12 221 0 304 3
313 12 18 18 14 56 -7 68 -12 6 -129 10 -310 10 -250 0 -292 -2 -305 -16z"/>
<path d="M5028 5783 c-20 -5 -33 -44 -24 -68 5 -13 47 -15 323 -13 l318 3 3
33 c3 27 -1 34 -23 42 -26 10 -561 13 -597 3z"/>
<path d="M5022 5351 c-8 -5 -12 -17 -10 -27 3 -18 19 -19 311 -22 l308 -2 -3
27 -3 28 -295 2 c-162 2 -301 -1 -308 -6z"/>
<path d="M5015 5039 c-4 -5 -4 -21 -1 -35 l6 -24 303 2 302 3 3 33 3 32 -305
0 c-203 0 -307 -4 -311 -11z"/>
<path d="M5027 4723 c-13 -12 -7 -41 9 -47 9 -3 141 -6 294 -6 234 0 279 2
290 15 10 12 10 18 0 30 -11 13 -57 15 -300 15 -157 0 -290 -3 -293 -7z"/>
<path d="M5032 4401 c-8 -5 -12 -17 -10 -27 3 -18 19 -19 300 -22 266 -2 296
-1 302 14 16 41 -3 44 -298 44 -154 0 -287 -4 -294 -9z"/>
</g>
</svg>
